<mxfile host="app.diagrams.net" modified="2023-05-12T16:28:57.310Z" agent="Mozilla/5.0 (Windows NT 10.0; Win64; x64; rv:109.0) Gecko/20100101 Firefox/112.0" version="21.2.9" etag="v4QWGuRhKenCh90BSHqJ" type="github">
  <diagram name="Page-1" id="1pHW5grbn4J9oQGV5NwZ">
    <mxGraphModel>
      <root>
        <mxCell id="0" />
        <mxCell id="1" parent="0" />
      </root>
    </mxGraphModel>
  </diagram>
</mxfile>
